<svg id="Layer_1" data-name="Layer 1" xmlns="http://www.w3.org/2000/svg" viewBox="0 0 720 270"><title>Valantic_Logo</title><polygon points="125.32 91.07 106.4 148.74 87.48 91.07 60 91.07 91.99 177.53 120.81 177.53 152.8 91.07 125.32 91.07"/><path d="M240.91,177.53V91.07H216.12v9.66l-1.44-1.66C208.65,92.12,200,88.6,189,88.6a39.22,39.22,0,0,0-29.11,13.15,49.57,49.57,0,0,0,0,65.11A39.22,39.22,0,0,0,189,180c11,0,19.6-3.52,25.64-10.47l1.44-1.66v9.66Zm-46.58-20.91c-13,0-21.79-9-21.79-22.32S181.3,112,194.33,112s21.79,9,21.79,22.32S207.37,156.62,194.33,156.62Z"/><path d="M378.89,177.53V91.07H354.1v9.66l-1.44-1.66C346.62,92.12,338,88.6,327,88.6a39.22,39.22,0,0,0-29.11,13.15,49.57,49.57,0,0,0,0,65.11A39.22,39.22,0,0,0,327,180c11,0,19.6-3.52,25.64-10.47l1.44-1.66v9.66ZM332.3,156.62c-13,0-21.79-9-21.79-22.32S319.27,112,332.3,112s21.79,9,21.79,22.32S345.34,156.62,332.3,156.62Z"/><polygon points="253.12 57.43 253.12 177.53 277.91 177.53 277.91 49.99 253.12 57.43"/><path d="M432.57,113.39a16.7,16.7,0,0,1,16.68,16.68v47.46H474V124.39a35.78,35.78,0,0,0-56.85-28.93l-1.31,1V91.07H391.1v86.47h24.79V130.07A16.7,16.7,0,0,1,432.57,113.39Z"/><path d="M499.9,171.52c6.48,5.85,17.64,7.79,35.11,6.09V155.26c-8,.44-13.14.12-16-2.54a7.66,7.66,0,0,1-2.19-5.91v-32H535V91.07H516.86V60.71l-24.79,7.44V91.07H478V114.8h14.1v32C492.07,158.84,494.56,166.69,499.9,171.52Z"/><rect x="542.82" y="91.07" width="24.79" height="86.47"/><path d="M555.21,50a15,15,0,1,0,15,15A15.24,15.24,0,0,0,555.21,50Z"/><path d="M638.38,146c-3.11,5.91-9.7,9.54-17.44,9.54-12,0-20.73-8.94-20.73-21.26S608.92,113,620.94,113c7.69,0,14.14,3.55,17.43,9.55L660,110c-7.74-13.24-22.49-21.43-38.71-21.43-26.15,0-45.88,19.65-45.88,45.7S595.14,180,621.29,180c16.25,0,31-8.26,38.71-21.6Z"/></svg>