<svg xmlns="http://www.w3.org/2000/svg" viewBox="0 0 268.48 268.48"><defs><style>.cls-1{fill:#1a1a1a;}.cls-2{fill:#00b5e2;}.cls-3{fill:#fff;}</style></defs><title>logo</title><g id="Layer_2" data-name="Layer 2"><g id="Logos"><rect class="cls-1" width="268.48" height="268.48" rx="14.17" ry="14.17"/><path class="cls-2" d="M47.67,126.53H66.18c15.31,0,23.87-8.31,23.87-21.73v-15c0-13.42-8.56-21.73-23.87-21.73H47.67c-2.06,0-2.8.74-2.8,2.8v52.84C44.87,125.79,45.61,126.53,47.67,126.53Zm7.57-48.81h11c8.64,0,13.5,4.2,13.5,12v15.14c0,7.82-4.86,12-13.5,12h-11Z"/><path class="cls-2" d="M117.92,127.77c15.06,0,23.46-8.23,23.46-21.48V88.34c0-13.25-8.39-21.48-23.46-21.48S94.39,75.09,94.39,88.34v17.94C94.39,119.54,102.78,127.77,117.92,127.77ZM104.76,88.26c0-7.65,4.77-11.77,13.17-11.77s13.17,4.12,13.17,11.77v18.11c0,7.65-4.69,11.77-13.17,11.77s-13.17-4.12-13.17-11.77Z"/><path class="cls-2" d="M231,141.94h-4.58c-.3,0-.39.1-.39.39V143c0,.29.1.39.39.39h1.5v5c0,.3.1.39.4.39h.78c.29,0,.39-.1.39-.39v-5H231c.3,0,.4-.1.4-.39v-.65C231.4,142,231.31,141.94,231,141.94Z"/><path class="cls-2" d="M238.43,141.94h-.68c-.31,0-.39,0-.52.3l-1.77,3.25-1.77-3.26c-.12-.23-.22-.29-.55-.29h-.62c-.3,0-.4.1-.4.38v6.07c0,.29.1.38.4.38h.67c.3,0,.4-.1.4-.38v-2.18a8.65,8.65,0,0,0-.29-2.18h.08a7.89,7.89,0,0,0,.71,1.79l.69,1.22c.13.22.2.28.44.28h.44a.42.42,0,0,0,.44-.28l.68-1.22a9.71,9.71,0,0,0,.77-1.79h.09a8.17,8.17,0,0,0-.33,2.17v2.19c0,.29.1.38.39.38h.72c.29,0,.38-.1.38-.38v-6.07C238.81,142,238.72,141.94,238.43,141.94Z"/><path class="cls-2" d="M115.15,190.77H90V175.63h20.32c2.14,0,2.8-.74,2.8-2.8v-4c0-2.06-.66-2.8-2.8-2.8H90V151.6h24.27c2.14,0,2.8-.74,2.8-2.8v-4c0-2.06-.66-2.8-2.8-2.8H82.49c-2.06,0-2.8.74-2.8,2.8v46H55.16v-46c0-2.06-.66-2.8-2.8-2.8H47.67c-2.06,0-2.8.74-2.8,2.8V197.6c0,2.06.74,2.8,2.8,2.8h67.48c2.06,0,2.8-.74,2.8-2.8v-4C117.95,191.51,117.21,190.77,115.15,190.77Z"/><path class="cls-2" d="M152.69,144.1c-.66-1.81-1.56-2.22-3.46-2.22h-4.36c-1.89,0-2.72.41-3.46,2.3l-20.49,53.5c-.74,1.81-.25,2.72,1.81,2.72h3.79c3.46,0,4.44-.49,5.1-2.47l3.87-10.62H158.2L162,197.93c.66,2,1.65,2.47,5.1,2.47h4.28c2.06,0,2.55-.9,1.89-2.72Zm-14.32,34.73,6.34-17.45a34.07,34.07,0,0,0,1.73-10h.66a38.74,38.74,0,0,0,1.89,10l6.25,17.37Z"/><path class="cls-2" d="M220.72,141.88H216.2c-2.21,0-2.9.77-2.9,2.9v25.41c0,8.6,1.87,16.35,1.87,17.2h-.51c-.43-.68-2.81-8-7.15-14.47l-20.69-29.67a3.2,3.2,0,0,0-2.9-1.36h-4.85c-2.13,0-2.9.77-2.9,2.9v52.73c0,2.13.77,2.89,2.9,2.89h4.51c2.21,0,2.89-.77,2.89-2.89V171.72c0-8.09-1.87-16.26-1.87-16.94h.51c.42.51,3,8.34,7,14.3L213,199a2.86,2.86,0,0,0,2.89,1.45h4.85c2.13,0,2.89-.77,2.89-2.89V144.78C223.61,142.65,222.85,141.88,220.72,141.88Z"/><path class="cls-3" d="M191.78,62.65a6.71,6.71,0,1,0-5.71-7.58A6.71,6.71,0,0,0,191.78,62.65Z"/><path class="cls-3" d="M238.81,81.6V77.3c0-2.2-.7-3-3-3H212.09L195.51,69.5l-11.18-1.6a3.51,3.51,0,0,0-3.09,1.41L171.48,82a3.13,3.13,0,0,0-.87,2.62c.05.2,4.92,16,4.92,16a2.56,2.56,0,0,0,2.34,1.77,2.25,2.25,0,0,0,1.61-.45L176,124.5a1.87,1.87,0,0,0,1.67,2h7.72a1.92,1.92,0,0,0,1.93-1.66l7.21-47.52,1.1,3.55a5.4,5.4,0,0,0,5.13,3.73H212.6v38.9c0,2.29.79,3,3,3h5.07c2.2,0,3-.71,3-3V84.6l12.17,0C238.11,84.59,238.81,83.8,238.81,81.6ZM180.32,96.2,177.1,84.88l6.28-8.32Z"/></g></g></svg>